<svg xmlns="http://www.w3.org/2000/svg" width="256" height="256" fill="none" viewBox="0 0 102 77"><path fill="#0C2" d="M29 6c0-2.761 3.239-6 6-6h32c2.761 0 6 3.239 6 6v14a2 2 0 0 1-2 2H41a2 2 0 0 1-2-2v-3a2 2 0 0 1 2-2h24a1 1 0 0 0 1-1V9c0-1.657-.343-2-2-2H38c-1.657 0-2 .343-2 2v11a2 2 0 0 1-2 2H14c-4.418 0-7 2.582-7 7v34c0 4.418 2.582 7 7 7h74c4.418 0 7-2.582 7-7V28c0-4.418-1.582-6-6-6H78a2 2 0 0 1-2-2v-3a2 2 0 0 1 2-2h14c5.523 0 10 4.477 10 10v42c0 5.523-4.477 10-10 10H10C4.477 77 0 72.523 0 67V25c0-5.523 4.477-10 10-10h18a1 1 0 0 0 1-1V6Z"/></svg>