<svg width="128" height="128" viewBox="0 0 128 128" fill="none" xmlns="http://www.w3.org/2000/svg">
<rect width="128" height="128" fill="white"/>
<path d="M43 35C43 32.2386 45.2386 30 48 30H80C82.7614 30 85 32.2386 85 35V48C85 49.1046 84.1046 50 83 50H54C52.8954 50 52 49.1046 52 48V47C52 45.8954 52.8954 45 54 45H79C79.5523 45 80 44.5523 80 44V37C80 35.3431 79.6569 35 78 35H50C48.3431 35 48 35.3431 48 37V48C48 49.1046 47.1046 50 46 50H25C20.5817 50 19 51.5817 19 56V94C19 98.4183 20.5817 100 25 100H103C107.418 100 109 98.4183 109 94V56C109 51.5817 107.418 50 103 50H91C89.8954 50 89 49.1046 89 48V47C89 45.8954 89.8954 45 91 45H105C110.523 45 114 48.4772 114 54V96C114 101.523 110.523 105 105 105H23C17.4772 105 14 101.523 14 96V54C14 48.4772 17.4772 45 23 45H42C42.5523 45 43 44.5523 43 44V35Z" fill="#006611"/>
<path d="M91.5 47.5H105.5C108.814 47.5 111.5 50.1863 111.5 53.5V96.5C111.5 99.8137 108.814 102.5 105.5 102.5H22.5C19.1863 102.5 16.5 99.8137 16.5 96.5V53.5C16.5 50.1863 19.1863 47.5 22.5 47.5H44.5C45.0523 47.5 45.5 47.0523 45.5 46.5V33.5C45.5 32.9477 45.9477 32.5 46.5 32.5H81.5C82.0523 32.5 82.5 32.9477 82.5 33.5V46.5C82.5 47.0523 82.0523 47.5 81.5 47.5H54.5" stroke="black"/>
<path d="M54 47.5H81.5C82.0523 47.5 82.5 47.0523 82.5 46.5V33.5C82.5 32.9477 82.0523 32.5 81.5 32.5H46.5C45.9477 32.5 45.5 32.9477 45.5 33.5V46.5C45.5 47.0523 45.0523 47.5 44.5 47.5H22.5C19.1863 47.5 16.5 50.1863 16.5 53.5V96.5C16.5 99.8137 19.1863 102.5 22.5 102.5H105.5C108.814 102.5 111.5 99.8137 111.5 96.5V53.5C111.5 50.1863 108.814 47.5 105.5 47.5H91.5" stroke="#C02929"/>
</svg>
