<svg width="256" height="256" viewBox="0 0 102 77" fill="none" xmlns="http://www.w3.org/2000/svg">
  <path
    d="M29 6C29 3.23857 32.2386 0 35 0H67C69.7614 0 73 3.23857 73 6V20C73 21.1046 72.1046 22 71 22H41C39.8954 22 39 21.1046 39 20V17C39 15.8954 39.8954 15 41 15H65C65.5523 15 66 14.5523 66 14V9C66 7.34315 65.6569 7 64 7H38C36.3431 7 36 7.34315 36 9V20C36 21.1046 35.1046 22 34 22H14C9.58172 22 7 24.5817 7 29V63C7 67.4183 9.58172 70 14 70H88C92.4183 70 95 67.4183 95 63V28C95 23.5817 93.4183 22 89 22H78C76.8954 22 76 21.1046 76 20V17C76 15.8954 76.8954 15 78 15H92C97.5228 15 102 19.4772 102 25V67C102 72.5228 97.5229 77 92 77H10C4.47715 77 0 72.5229 0 67V25C0 19.4772 4.47715 15 10 15H28C28.5523 15 29 14.5523 29 14V6Z"
    fill="#00CC22" />
</svg>