<svg width="100" height="75" viewBox="0 0 100 75" fill="none" xmlns="http://www.w3.org/2000/svg">
<path d="M29 5C29 2.23857 31.2386 0 34 0H66C68.7614 0 71 2.23857 71 5V18C71 19.1046 70.1046 20 69 20H40C38.8954 20 38 19.1046 38 18V17C38 15.8954 38.8954 15 40 15H65C65.5523 15 66 14.5523 66 14V7C66 5.34315 65.6569 5 64 5H36C34.3431 5 34 5.34315 34 7V18C34 19.1046 33.1046 20 32 20H11C6.58172 20 5 21.5817 5 26V64C5 68.4183 6.58172 70 11 70H89C93.4183 70 95 68.4183 95 64V26C95 21.5817 93.4183 20 89 20H77C75.8954 20 75 19.1046 75 18V17C75 15.8954 75.8954 15 77 15H91C96.5228 15 100 18.4772 100 24V66C100 71.5228 96.5229 75 91 75H9C3.47715 75 0 71.5229 0 66V24C0 18.4772 3.47715 15 9 15H28C28.5523 15 29 14.5523 29 14V5Z" fill="#D9D9D9"/>
</svg>
