<svg width="118" height="118" viewBox="0 0 118 118" fill="none" xmlns="http://www.w3.org/2000/svg">
<path fill-rule="evenodd" clip-rule="evenodd" d="M50 5C50 2.23858 52.2386 0 55 0H63C65.7614 0 68 2.23858 68 5V18.4596C73.4269 19.659 78.455 21.9203 82.855 25.0144L92.3154 15.5541C94.268 13.6014 97.4338 13.6014 99.3864 15.5541L104.677 20.8443C106.629 22.7969 106.629 25.9627 104.677 27.9153L94.7377 37.8542C96.9405 41.569 98.5805 45.6568 99.5404 50H113C115.761 50 118 52.2386 118 55V63C118 65.7614 115.761 68 113 68H99.5404C98.4603 72.8869 96.5192 77.4503 93.8843 81.523L103.584 91.2228C105.537 93.1754 105.537 96.3412 103.584 98.2938L98.2938 103.584C96.3412 105.537 93.1754 105.537 91.2228 103.584L81.523 93.8843C77.4503 96.5192 72.8869 98.4604 68 99.5404V113C68 115.761 65.7614 118 63 118H55C52.2386 118 50 115.761 50 113V99.5404C45.39 98.5215 41.0678 96.7364 37.1739 94.3254L26.8227 104.677C24.8701 106.629 21.7043 106.629 19.7517 104.677L14.4615 99.3864C12.5088 97.4338 12.5088 94.268 14.4615 92.3153L24.5686 82.2082C21.7027 77.9647 19.6006 73.1628 18.4596 68H5C2.23858 68 0 65.7614 0 63V55C0 52.2386 2.23858 50 5 50H18.4596C19.5396 45.1131 21.4808 40.5497 24.1157 36.477L14.4615 26.8227C12.5088 24.8701 12.5088 21.7043 14.4615 19.7517L19.7517 14.4615C21.7043 12.5088 24.8701 12.5088 26.8227 14.4615L36.477 24.1157C40.5497 21.4808 45.1131 19.5396 50 18.4596V5ZM59 39.6891C48.3349 39.6891 39.6891 48.3349 39.6891 59C39.6891 69.6651 48.3349 78.3109 59 78.3109C69.6651 78.3109 78.3109 69.6651 78.3109 59C78.3109 48.3349 69.6651 39.6891 59 39.6891Z" fill="#C4C4C4"/>
</svg>
